<?xml version="1.0" encoding="utf-8"?>
<!-- Generator: Adobe Illustrator 18.0.0, SVG Export Plug-In . SVG Version: 6.00 Build 0)  -->
<!DOCTYPE svg PUBLIC "-//W3C//DTD SVG 1.1//EN" "http://www.w3.org/Graphics/SVG/1.1/DTD/svg11.dtd">
<svg version="1.1" xmlns="http://www.w3.org/2000/svg" xmlns:xlink="http://www.w3.org/1999/xlink" x="0px" y="0px"
	 viewBox="0 0 2272 1872" enable-background="new 0 0 2272 1872" xml:space="preserve">
<g id="Background">
	<rect x="-13.7" fill="#5A1D25" width="2318" height="1883.4"/>
</g>
<g id="Object">
	<circle fill="#6D2A33" cx="263" cy="481" r="240"/>
	<circle fill="#6D2A33" cx="949" cy="457" r="240"/>
	<circle fill="#6D2A33" cx="1845" cy="453" r="240"/>
	<circle fill="#6D2A33" cx="1845" cy="1173" r="240"/>
	<circle fill="#6D2A33" cx="1109" cy="1289" r="240"/>
	<circle fill="#6D2A33" cx="401" cy="1361" r="240"/>
	<path fill="#FFFFFF" d="M1816.4,313.6c-33.1,7.4-45.7,38.2-47.2,63.7s-2.2,37.4-8.2,50.9c-6,13.5-23.2,19.5-38.9,21.7
		s-31.5-15.7-46.4-21.7c-15-6-44.9-3.7-59.9,6c-15,9.7-30-5.2-38.9-11.2c-9-6-18.7-3-31.5,1.5s-19.5-5.2-18.7-31.5
		c0.7-26.2,6.7-56.2,15-61.4c8.2-5.2,9.7,14.2,25.5,16.5c15.7,2.2,48.7-5.2,49.4-13.5c0.7-8.2-11.2-25.5-9-35.2
		c2.2-9.7-14.2-12.7-25.5-13.5c-11.2-0.7-32.9-9.7-51.7,5.2c-18.7,15-55.4,73.4-65.9,97.3c-10.5,24-30.7,54.7-18.7,77.9
		c12,23.2,80.1,65.1,101.1,67.4c21,2.2,56.9,7.5,76.4,0c7.5-1.5,12.7,9,12,22.5s3.7,23.2,12.7,35.2s6.7,58.4,9,75.6
		c2.2,17.2,2.2,59.9-4.5,73.4c-6.7,13.5-25.4,27.7-23.2,32.9s211.1,0.7,213.4,0s-6-33.7-6-56.2c0-22.5,19.5-54.7,28.5-73.4
		c9-18.7,33.7-48.7,41.2-53.9s42.7,39.7,68.1,44.9c25.5,5.2,116.1,6,125.1-6.7c9-12.7-3-92.9-17.2-129.5s-45.7-93.6-58.4-104.1
		s-50.9-24-61.4-21c-10.5,3-20.2,35.2-14.2,46.4s18,9,24.7,6c6.7-3,29.2-2.2,33.7,0.7c4.5,3,17.2,109.3,16.5,114.6
		c-0.7,5.2-25.5-21-40.4-22.5c-15-1.5-27-15-38.9-26.2c-12-11.2-42.7-15-53.9-12c-11.2,3-27.7,12-33.7,18c-6,6-47.2-11.2-55.4-26.2
		s-4.5-44.9-3-50.2c1.5-5.2,3,37.4,16.5,47.2c13.5,9.7,21.7,12.7,31.5,12c9.7-0.7,22.5-12.7,25.5-21s15.7-1.5,18.7-5.2
		c3-3.7-1.5-30.7,3.7-34.4c5.2-3.7,24.7-25.5,15.7-56.9S1859.8,303.8,1816.4,313.6z"/>
	<path fill="#FFFFFF" d="M538,354.4c-10.5-0.5-19.4,24-41.5,27.7s-70.1,13.8-86.6,38.7c-16.6,24.9-29.5,40.6-34.1,68.2
		c6.5,5.5,27.7,6.5,50.7,0c23-6.5,49.8,3.7,51.6,11.1c2.8,8.3-17.5-4.6-34.1,0c-4.6,2.9,19.4,24.9,26.7,35
		c3.7,5.5-16.6,0.9-32.3-15.7s-56.2-20.3-73.7-18.4c-17.5,1.8-62.7,39.6-69.1,78.3c0,12,26.7,47.9,18.4,78.3
		c-5.5,6.5-9.2-5.5-12-22.1c-2.8-16.6-8.3-44.2-33.2-73.7c-24.9-29.5-49.8-58.1-68.2-71c-18.4-12.9-19.4-20.3-21.2-27.7
		s-1.8-38.7,0-42.4s31.3-8.3,36.9-21.2c5.5-12.9-12.9-23-31.3-24c-2.8-0.9,7.4-11.1,21.2-4.6c13.8,6.5,22.6,8.8,25.3,1.8
		c2.8-6.9-2.8-15.2-11.5-18.4c-8.8-3.2-20.3-5.5-27.2-4.6c-2.8-1.8,8.8-9.7,21.2-6.5c12.4,3.2,20.7,12,27.2,9.7
		c6.5-2.3,6.5-13.8,1.4-18.4s-24-9.2-32.7-8.3c-3.2-1.8,5.5-7.8,16.6-6c11.1,1.8,14.7,1.4,15.7-4.1c0.9-5.5-6-16.1-13.8-17.1
		c-7.8-0.9-65-5.5-74.7,5.5c-9.7,11.1-41.5,71.4-44.7,100c-3.2,28.6,7.8,65.9,12.9,79.7c5.1,13.8,34.1,129.8,47.9,155.9
		c13.8,26.1,56.7,104,76,116s77-0.5,100-20.7c23-20.3,30.4-41.5,37.8-46.5s58.1-24,83-57.6c24.9-33.6,32.7-53.5,36.9-55.8
		c4.1-2.3,22.1,55.3,30.4,58.1C542.2,636.5,548.2,354.9,538,354.4z"/>
	<g>
		<path fill="#FFFFFF" d="M1134.1,1514.2c16.8,6.2-64.6,27.5-105.6,37.1c-41,9.5-107.8,15.2-119.1,7.9c-11.2-7.3-6.7-33.1-18.5-56.7
			c-11.8-23.6-13.5-73-9-93.2c4.5-20.2,12.9-48.3,16.8-88.7c3.9-40.4,29.8-56.2,44.4-59s25.8-1.1,32.6-8.4
			c6.7-7.3,29.2-22.5,47.2-25.8s25.8-21.9,31.5-18.6c9,12.4,27,19.1,44.4,18.5s27-5.6,37.6-15.7c10.7-10.1,9-16.8,4.5-16.8
			c-4.5,0-9,17.4-41.6,19.1c-32.6,1.7-49.4-27.5-54.5-38.8c-5.1-11.2-5.1-15.7-13.5-15.7c-8.4,0-18-19.1-15.7-34.3
			c2.2-15.2,10.7-17.4,15.7-16.8c0,0-11.8-42.7,16.3-66.3c28.1-23.6,92.1-20.2,105.6,0c13.5,20.2,15.7,61.8,15.7,61.8
			s14.6-5.6,16.8,16.8s-18,40.4-24.7,46.1c-6.7,5.6-1.1,31.5,12.4,39.3c13.5,7.9,20.2,12.4,33.7,12.4s27,2.2,42.7,15.7
			c15.7,13.5,24.7,20.2,41.6,20.2s35.9,18,34.8,59.5c-1.1,41.6,9,49.4,14.6,61.8s11.2,65.1,0,96.6c-11.2,31.5-25.8,51.7-35.9,59.5
			c-10.1,7.9-67.4,3.4-106.7-4.5c-39.3-7.9-61.8-28.1-105.6-44.9c-43.8-16.8-69.6-32.6-79.8-32.6c-10.1,0,3.4-13.5,1.1-30.3
			c1.1-11.2,16.8,1.1,30.3,2.2c13.5,1.1,32.6,3.4,52.8,9c20.2,5.6,47.2,4.5,66.3,1.1s48.3-13.5,78.6-6.7
			c11.2,1.1-14.6-5.6-21.3-25.8c-6.7-20.2,2.2-40.4,4.5-49.4c2.2-9-3.4-30.3-5.6-40.4c-2.2-10.1-2.2,18-10.1,40.4
			c-7.9,22.5-9.1,43.8,0,58.4c0,3.4-43.1,12.4-61.4,12.4c-18.3,0-46.4-4.5-61-9c-14.6-4.5-41.6-4.5-52.8-5.6
			c-11.2-1.1-19.1-7.9-21.3-20.2c-2.2-12.4-21.3-25.5-18-50.9s-15.7,12.7-9,28.5c6.7,15.7,13.5,23.6,14.6,43.8
			c1.1,20.2-5.6,44.9-24.7,58.4c-4.5,6.7,24.7,2.2,43.8,3.4C1038.6,1469.9,1117.2,1508,1134.1,1514.2z"/>
		<path fill="#FFFFFF" d="M995.9,1594.5c0,23.6-10.1,32.6-7.9,35.9c2.2,3.4,265.1,5.6,267.3,0c2.2-5.6-10.1-15.7-12.4-85.4
			c-5.3-11.9-27,4.5-49.4,0c-22.5-4.5-35.2-19.1-45.7-16.8c-10.5,2.2-93.5,34.2-111.6,34.2C994.8,1562.5,995.9,1570.9,995.9,1594.5z
			"/>
	</g>
	<path fill="#FFFFFF" d="M687.8,1383.4c-3.4-11.2-10.1-35.6-24.7-48.7c-14.6-13.1-32.6-31.3-49.4-40.7c-16.8-9.4-7.9-24.1-28.1-46.5
		c-20.2-22.5-41.6-27-64-24.7c-22.5,2.2-32.6-3.4-46.1-10.1c-13.5-6.7-22.5-14.6-24.7-23.6s-2.2-32.6-1.1-37.1
		c1.1-4.5,16.8-9,19.1-25.8c2.2-16.8-12.4-13.5-13.5-19.1c-1.1-5.6,7.5-13.1,2.6-38.2c-4.9-25.1-38.9-31.8-57.7-30.3
		c-18.7-1.5-52.8,5.2-57.7,30.3c-4.9,25.1,3.7,32.6,2.6,38.2c-1.1,5.6-15.7,2.2-13.5,19.1c2.2,16.8,18,21.3,19.1,25.8
		c1.1,4.5,1.1,28.1-1.1,37.1s-11.2,16.8-24.7,23.6c-13.5,6.7-23.6,12.4-46.1,10.1c-22.5-2.2-43.8,2.2-64,24.7
		c-20.2,22.5-11.2,37.1-28.1,46.5c-16.8,9.4-34.8,27.6-49.4,40.7c-14.6,13.1-21.3,37.4-24.7,48.7c-3.4,11.2-10.1,28.1,5.6,56.2
		s69.6,75.3,80.9,82s14.6,10.1,18,24.7c3.4,14.6,31.5,29.2,41.6,31.5c10.1,2.2,20.2,3.4,21.3,7.9c1.1,4.5-18,34.8-9,33.7
		c9-1.1,129.2,0,129.2,0s120.2-1.1,129.2,0c9,1.1-10.1-29.2-9-33.7c1.1-4.5,11.2-5.6,21.3-7.9c10.1-2.2,38.2-16.8,41.6-31.5
		c3.4-14.6,6.7-18,18-24.7s65.1-53.9,80.9-82S691.2,1394.6,687.8,1383.4z M300.9,1523.8c-5.6-0.6-11.8-6.7-15.7-13.5
		s-8.4-6.2-26.4-6.2s-39.3-29.8-46.6-40.4c-7.3-10.7-8.4-41-16.8-43.8s-15.2-15.9-7.9-20.8c6.7-4.5,28.1-0.6,42.1-10.7
		s24.7-36.5,29.8-34.3c5.1,2.2,7.3,21.3,13.5,34.3s25.3,35.4,24.1,53.4C295.8,1459.7,306.5,1524.3,300.9,1523.8z M400.3,1193.5
		c-10.4-0.2-29.5-3.6-31.1-26.9c0,0,9.7,12.8,31.1,15.2c21.4-2.4,31.1-15.2,31.1-15.2C429.7,1189.9,410.7,1193.4,400.3,1193.5z
		 M605.3,1419.9c-8.4,2.8-9.5,33.1-16.8,43.8c-7.3,10.7-28.6,40.4-46.6,40.4c-18,0-22.5-0.6-26.4,6.2c-3.9,6.7-10.1,12.9-15.7,13.5
		c-5.6,0.6,5.1-64,3.9-82c-1.1-18,18-40.4,24.1-53.4s8.4-32,13.5-34.3c5.1-2.2,15.7,24.1,29.8,34.3s35.4,6.2,42.1,10.7
		C620.5,1404,613.7,1417.1,605.3,1419.9z"/>
	<path fill="#FFFFFF" d="M2168.1,1208.1c-3.4-11.2-33.7-60.7-49.4-76.4c-15.7-15.7-64-35.9-76.4-38.2s-62.9-7.9-74.1-3.4
		c-11.2,4.5-13.5,24.7-14.6,33.7s11.2,16.8,22.5,16.8c11.2,0,29.2,1.1,38.2-11.2c9-12.4,20.2-5.6,31.5,12.4
		c11.2,18,23.6,48.3,22.5,55c-1.1,6.7-22.5-7.9-31.5-5.6c-9,2.2-12.4,15.7-27,13.5s-37.1-10.1-51.7-9c-14.6,1.1-31.5,22.5-44.9,21.3
		c-13.5-1.1-27-3.4-31.5-12.4c-4.5-9-3.4-35.9-1.1-40.4c2.2-4.5,22.5-10.1,22.5-29.2c0-19.1-15.7-15.7-18-23.6
		c-2.2-7.9,29.2-65.1-52.8-64c-82-1-50.5,56.2-52.8,64c-2.2,7.9-18,4.5-18,23.6c0,19.1,20.2,24.7,22.5,29.2
		c2.2,4.5,3.4,31.5-1.1,40.4c-4.5,9-18,11.2-31.5,12.4c-13.5,1.1-30.3-20.2-44.9-21.3c-14.6-1.1-37.1,6.7-51.7,9s-18-11.2-27-13.5
		c-9-2.2-30.3,12.4-31.5,5.6c-1.1-6.7,11.2-37.1,22.5-55c11.2-18,22.5-24.7,31.5-12.4c9,12.4,27,11.2,38.2,11.2
		c11.2,0,23.6-7.9,22.5-16.8s-3.4-29.2-14.6-33.7c-11.2-4.5-61.8,1.1-74.1,3.4c-12.4,2.2-60.7,22.5-76.4,38.2s-46.1,65.1-49.4,76.4
		s12.4,29.2,27,42.7c14.6,13.5,33.7,34.8,66.3,47.2s74.1,11.2,80.9,20.2s21.3,38.2,34.8,73c13.5,34.8,13.5,57.3,12.4,76.4
		c-1.1,19.1,1.1,70.8-7.9,87.6c-9,16.8-21.3,64.1-21.3,64.1h143.8h148.2c0,0-12.4-47.2-21.3-64.1c-9-16.8-6.7-68.5-7.9-87.6
		c-1.1-19.1-1.1-41.6,12.4-76.4c13.5-34.8,23.6-64,30.4-73s48.3-7.9,80.9-20.2s51.7-33.7,66.3-47.2
		C2155.7,1237.3,2171.4,1219.4,2168.1,1208.1z M1832.2,1203.5c-27.2-3.2-31.5-24.6-31.5-24.6c11.5,9.8,23,12.2,31.5,12.2
		c8.5,0,20-2.4,31.5-12.2C1863.7,1178.9,1859.4,1200.3,1832.2,1203.5z"/>
	<path fill="#FFFFFF" d="M986.3,394.4c-8.6,0,21.3,25.8,10.1,48.3c-11.2,22.5-23.6,31.5-32.6,34.8c-9,3.4-10.1-11.2-16.8-12.4
		c-6.7-1.1-16.8-1.5-21.3-12s-7.9-10.5-15.7-10.5s0-30.3,0-37.1c0-6.7-12.4-10.1-16.8-32.6c-4.5-22.5-15.7-48.3,5.6-66.3
		s64-42.7,94.4-29.2c30.3,13.5,46.1,21.3,51.7,41.6s12.4,65.1,25.8,79.8c13.5,14.6,44.9,18,65.1,12.4c20.2-5.6,31.5-2.2,49.4,2.2
		c18,4.5,41.6-4.5,58.4,7.9c16.8,12.4,39.3,35.8,43.8,56.7c4.5,20.8,19.1,38.8,39.3,51.2c20.2,12.4,28.1,39.3,35.9,70.8
		c7.9,31.5,19.1,46.1,24.7,59.5c5.6,13.5-16.8,46.1-22.5,65.1c-5.6,19.1-13.5,51.7-16.8,55s-66.3-2.2-75.3,0
		c-9,2.2,2.2-29.2,2.2-52.8s0-38.2,2.2-53.9c2.2-15.7-35.9-47.2-51.7-60.7s-57.3-53.9-65.1-68.5c-7.9-14.6-5.6,13.5,14.6,34.8
		c20.2,21.3,30.3,40.4,39.3,46.1s-5.6,22.5-15.7,48.3c-10.1,25.8-20.2,57.3-13.5,74.1s9,28,7.9,33.7c-1.1,5.6-196.6,4.5-201.1,0
		c-4.5-4.5,6.7-49.4,2.2-62.9s-40.4-58.4-57.3-86.5c-7.9-9-55,30.3-80.9,30.3c-25.8,0-88.7,2.2-121.3-16.8s-30.3-19.1-33.7-42.7
		c-3.4-23.6-13.5-61.8-13.5-87.6c0-25.8,14.6-65.1,20.2-79.8s23.6-44.9,35.9-56.2c12.4-11.2,35.9-21.3,53.9-19.1
		c18,2.2,29.2,13.5,34.8,28.1c5.6,14.6,5.6,24.7,1.1,31.5c-4.5,6.7-21.3,5.6-29.2,9c-7.9,3.4-38.2-3.4-43.8,3.4
		c-5.6,6.7-4.5,69.6-1.1,82c3.4,12.4,11.2,37.1,19.1,39.3c7.9,2.2,20.2-23.7,35.9-23.6c15.7,0,33.7,8.9,46.1,0
		c12.4-8.9,41.6-32.5,61.8-31.4c20.2,1.1,43.8,9,55,2.2c11.2-6.7,14.6-23.6,23.6-31.5c9-7.9,19.1-21.3,18-34.8
		C1017.7,420.3,994.1,394.4,986.3,394.4z"/>
</g>
</svg>
